<mxfile host="Electron" modified="2023-07-20T07:42:00.726Z" agent="Mozilla/5.0 (Windows NT 10.0; Win64; x64) AppleWebKit/537.36 (KHTML, like Gecko) draw.io/21.6.1 Chrome/112.0.5615.204 Electron/24.6.1 Safari/537.36" etag="dTY9b6dAK-7u7OwHxbV2" version="21.6.1" type="device">
  <diagram name="第 1 页" id="JwSDtt84sJuHHRGh4AuI">
    <mxGraphModel dx="3088" dy="2013" grid="1" gridSize="10" guides="1" tooltips="1" connect="1" arrows="1" fold="1" page="1" pageScale="1" pageWidth="827" pageHeight="1169" math="0" shadow="0">
      <root>
        <mxCell id="0" />
        <mxCell id="1" parent="0" />
        <mxCell id="lJtS1HTkO1mfaPGoBsWW-3" value="&lt;div style=&quot;color: rgb(204, 204, 204); background-color: rgb(31, 31, 31); font-family: Consolas, &amp;quot;Courier New&amp;quot;, monospace; font-size: 14px; line-height: 19px;&quot;&gt;testkey.x509.pem&lt;/div&gt;" style="ellipse;whiteSpace=wrap;html=1;fillColor=#f9f7ed;strokeColor=default;gradientColor=none;" parent="1" vertex="1">
          <mxGeometry x="120" y="-340" width="130" height="60" as="geometry" />
        </mxCell>
        <mxCell id="lJtS1HTkO1mfaPGoBsWW-8" value="List" style="swimlane;fontStyle=0;childLayout=stackLayout;horizontal=1;startSize=30;horizontalStack=0;resizeParent=1;resizeParentMax=0;resizeLast=0;collapsible=1;marginBottom=0;whiteSpace=wrap;html=1;fillColor=#f9f7ed;strokeColor=#36393d;" parent="1" vertex="1">
          <mxGeometry x="-110" y="-180" width="220" height="170" as="geometry">
            <mxRectangle x="20" y="150" width="60" height="30" as="alternateBounds" />
          </mxGeometry>
        </mxCell>
        <mxCell id="lJtS1HTkO1mfaPGoBsWW-10" value="signAPK会使用对update.zip签名，signAPk默认会去config下找(FinalizeMetadata-FinalizeAllPropertyFiles）" style="text;strokeColor=none;fillColor=none;align=left;verticalAlign=top;spacingLeft=4;spacingRight=4;overflow=hidden;points=[[0,0.5],[1,0.5]];portConstraint=eastwest;rotatable=0;whiteSpace=wrap;html=1;" parent="lJtS1HTkO1mfaPGoBsWW-8" vertex="1">
          <mxGeometry y="30" width="220" height="140" as="geometry" />
        </mxCell>
        <mxCell id="lJtS1HTkO1mfaPGoBsWW-20" value="&lt;div style=&quot;color: rgb(204, 204, 204); background-color: rgb(31, 31, 31); font-family: Consolas, &amp;quot;Courier New&amp;quot;, monospace; font-size: 14px; line-height: 19px;&quot;&gt;testkey.PK8&lt;/div&gt;" style="ellipse;whiteSpace=wrap;html=1;" parent="1" vertex="1">
          <mxGeometry x="414" y="-340" width="140" height="80" as="geometry" />
        </mxCell>
        <mxCell id="tHdf5YVAJG1jq23WbG5U-3" value="ReleaseTools/commonpy:&#xa;&#xa;self.search_path = os.path.dirname(os.path.dirname(exec_path))&#xa;    # { Modify by jiangzhuangzhuang@iauto.com&#xa;    print(&quot;self.search_path = %s&quot;%(self.search_path))&#xa;    self.signapk_path = &quot;framework/signapk.jar&quot;  # Relative to search_path&#xa;    self.signapk_shared_library_path = &quot;lib64&quot;   # Relative to search_path&#xa;    # } Modify by jiangzhuangzhuang@iauto.com&#xa;#signAPK 使用的公私钥&#xa;    self.public_key_suffix = &quot;.x509.pem&quot;//KprSupplier.pem&#xa;    self.private_key_suffix = &quot;.pk8&quot; //KprSupplier.pk8" style="shape=card;strokeColor=#d6b656;align=left;fontSize=14;fillColor=#fff2cc;" parent="1" vertex="1">
          <mxGeometry x="-220" y="-1160" width="490" height="300" as="geometry" />
        </mxCell>
        <mxCell id="tHdf5YVAJG1jq23WbG5U-5" value="" style="endArrow=classic;html=1;rounded=0;entryX=0.377;entryY=0.033;entryDx=0;entryDy=0;entryPerimeter=0;fillColor=#d80073;strokeColor=#A50040;" parent="1" source="lJtS1HTkO1mfaPGoBsWW-2" target="lJtS1HTkO1mfaPGoBsWW-3" edge="1">
          <mxGeometry width="50" height="50" relative="1" as="geometry">
            <mxPoint x="420" y="-460" as="sourcePoint" />
            <mxPoint x="470" y="-510" as="targetPoint" />
          </mxGeometry>
        </mxCell>
        <mxCell id="tHdf5YVAJG1jq23WbG5U-7" value="openssl&amp;nbsp; make" style="edgeLabel;html=1;align=center;verticalAlign=middle;resizable=0;points=[];" parent="tHdf5YVAJG1jq23WbG5U-5" vertex="1" connectable="0">
          <mxGeometry x="-0.2219" y="3" relative="1" as="geometry">
            <mxPoint as="offset" />
          </mxGeometry>
        </mxCell>
        <mxCell id="tHdf5YVAJG1jq23WbG5U-6" value="" style="endArrow=none;dashed=1;html=1;rounded=0;exitX=0.362;exitY=0.95;exitDx=0;exitDy=0;exitPerimeter=0;entryX=0.5;entryY=0;entryDx=0;entryDy=0;" parent="1" source="lJtS1HTkO1mfaPGoBsWW-3" target="lJtS1HTkO1mfaPGoBsWW-8" edge="1">
          <mxGeometry width="50" height="50" relative="1" as="geometry">
            <mxPoint x="420" y="-460" as="sourcePoint" />
            <mxPoint x="470" y="-510" as="targetPoint" />
          </mxGeometry>
        </mxCell>
        <mxCell id="cpKgAFX4QUd4WCAVDUvz-1" value="供应商公私钥对" style="swimlane;whiteSpace=wrap;html=1;" vertex="1" parent="1">
          <mxGeometry x="630" y="-790" width="400" height="220" as="geometry">
            <mxRectangle x="180" y="-730" width="140" height="30" as="alternateBounds" />
          </mxGeometry>
        </mxCell>
        <mxCell id="lJtS1HTkO1mfaPGoBsWW-2" value="KprSupplier.pem&lt;br&gt;（公钥证书）" style="ellipse;whiteSpace=wrap;html=1;aspect=fixed;fillColor=#d80073;strokeColor=#A50040;fontColor=#ffffff;" parent="cpKgAFX4QUd4WCAVDUvz-1" vertex="1">
          <mxGeometry x="20" y="40" width="120" height="120" as="geometry" />
        </mxCell>
        <mxCell id="tHdf5YVAJG1jq23WbG5U-1" value="KprSupplier.pk8&lt;br&gt;（私钥）" style="ellipse;whiteSpace=wrap;html=1;aspect=fixed;fillColor=#d80073;strokeColor=#A50040;fontColor=#ffffff;" parent="cpKgAFX4QUd4WCAVDUvz-1" vertex="1">
          <mxGeometry x="190" y="50" width="120" height="120" as="geometry" />
        </mxCell>
        <mxCell id="cpKgAFX4QUd4WCAVDUvz-2" value="" style="endArrow=classic;html=1;rounded=0;fillColor=#d80073;strokeColor=#A50040;" edge="1" parent="1" source="tHdf5YVAJG1jq23WbG5U-1" target="lJtS1HTkO1mfaPGoBsWW-20">
          <mxGeometry width="50" height="50" relative="1" as="geometry">
            <mxPoint x="340" y="-310" as="sourcePoint" />
            <mxPoint x="390" y="-360" as="targetPoint" />
          </mxGeometry>
        </mxCell>
        <mxCell id="cpKgAFX4QUd4WCAVDUvz-5" value="aosp自带,位于product/security中" style="swimlane;whiteSpace=wrap;html=1;" vertex="1" parent="1">
          <mxGeometry x="-180" y="-790" width="390" height="220" as="geometry" />
        </mxCell>
        <mxCell id="cpKgAFX4QUd4WCAVDUvz-4" value="teskey.x509.pem" style="ellipse;whiteSpace=wrap;html=1;aspect=fixed;fillColor=#60a917;fontColor=#ffffff;strokeColor=#2D7600;" vertex="1" parent="cpKgAFX4QUd4WCAVDUvz-5">
          <mxGeometry x="30" y="50" width="110" height="110" as="geometry" />
        </mxCell>
        <mxCell id="cpKgAFX4QUd4WCAVDUvz-3" value="teskey.pk8" style="ellipse;whiteSpace=wrap;html=1;aspect=fixed;fillColor=#60a917;strokeColor=#2D7600;fontColor=#ffffff;" vertex="1" parent="cpKgAFX4QUd4WCAVDUvz-5">
          <mxGeometry x="230" y="50" width="105" height="105" as="geometry" />
        </mxCell>
        <mxCell id="cpKgAFX4QUd4WCAVDUvz-20" value="目前用的是这一套" style="text;html=1;align=center;verticalAlign=middle;resizable=0;points=[];autosize=1;strokeColor=#B20000;fillColor=#e51400;fontColor=#ffffff;" vertex="1" parent="cpKgAFX4QUd4WCAVDUvz-5">
          <mxGeometry x="120" y="38" width="120" height="30" as="geometry" />
        </mxCell>
        <mxCell id="cpKgAFX4QUd4WCAVDUvz-6" value="" style="endArrow=classic;html=1;rounded=0;entryX=0;entryY=0;entryDx=0;entryDy=0;fillColor=#60a917;strokeColor=#2D7600;" edge="1" parent="1" source="cpKgAFX4QUd4WCAVDUvz-3" target="lJtS1HTkO1mfaPGoBsWW-20">
          <mxGeometry width="50" height="50" relative="1" as="geometry">
            <mxPoint x="340" y="-410" as="sourcePoint" />
            <mxPoint x="390" y="-460" as="targetPoint" />
          </mxGeometry>
        </mxCell>
        <mxCell id="cpKgAFX4QUd4WCAVDUvz-7" value="" style="endArrow=classic;html=1;rounded=0;entryX=0.315;entryY=-0.017;entryDx=0;entryDy=0;entryPerimeter=0;fillColor=#60a917;strokeColor=#2D7600;" edge="1" parent="1" source="cpKgAFX4QUd4WCAVDUvz-4" target="lJtS1HTkO1mfaPGoBsWW-3">
          <mxGeometry width="50" height="50" relative="1" as="geometry">
            <mxPoint x="340" y="-510" as="sourcePoint" />
            <mxPoint x="160" y="-350" as="targetPoint" />
          </mxGeometry>
        </mxCell>
        <mxCell id="cpKgAFX4QUd4WCAVDUvz-8" value="" style="endArrow=none;dashed=1;html=1;dashPattern=1 3;strokeWidth=2;rounded=0;exitX=1;exitY=0.5;exitDx=0;exitDy=0;" edge="1" parent="1" source="lJtS1HTkO1mfaPGoBsWW-10" target="lJtS1HTkO1mfaPGoBsWW-20">
          <mxGeometry width="50" height="50" relative="1" as="geometry">
            <mxPoint x="340" y="-110" as="sourcePoint" />
            <mxPoint x="390" y="-160" as="targetPoint" />
          </mxGeometry>
        </mxCell>
        <mxCell id="cpKgAFX4QUd4WCAVDUvz-9" value="" style="shape=image;verticalLabelPosition=bottom;labelBackgroundColor=default;verticalAlign=top;aspect=fixed;imageAspect=0;image=data:image/png,iVBORw0KGgoAAAANSUhEUgAAA5QAAAAWCAYAAAC/ptMGAAAHVElEQVR4nO2dbXLjIAyGvTv7MxfobXz0HCD36DG6v7zLEEASQkhy3memM20wIPQF2Dj99Xg8fg7wUTyfz+M8T28xAHAlYhxwZYooOwBgL3fPA97j8+4/OtAPKPnjLcDdeD6fx3EcKYPskr3kGkdrXK3re/Vbdbx0hCQIKB/oldc+32uDU79Vfp6niX+2+rWIRev8lzm/Hkd++bVox//p+iu5+zzmPT7v/mfYGR8Z9ROd7PnNdEOZXTmfRrnQrG12LXTLsnrx26o3KtcmJKl/cTbAdwGxN8fIRyj/ltbfOSG3NqpWm1cO8E8wAv4BAAC5+G3ZuPYuZEbO88QkeLwvCEab1FmkeubaJrP/Hcd/XWv1e1dGmyht/Erq9+yT2W6c8Wv8M3t+zS4/h5FNtf6xQ39ZY28X0fUTXT5LuPHliXf/FJ7yZZ8fTDeUwIbrSaEHOxa7nuO7G5mTE7AlwpEl7/5BbO7oHyvmtwixa4n3+Lz7jw70A1r8O/I6ekeu3ETUv9dQiXL03k5Z1uuD+w4Tp/+yfmt8nP5bbYzqSdvPFrQ7NpuScon+pP4307Y0fnq+Rb0TJ40fqn3qqcMK+blQda3e0+Uc8Y4M54jrKv+j7NI6wTDTZ6u92fw9gpofOe17yt9rY1V+qK+hdCP1D059znXW648V9tHAOfHAjblRmWZ+6bXPYaR/jnz1ddr140gGSf/c9Xfv7167vX5n8i8HrX04fXrlr1b7IzlHcnNkbNWl1o/uPB6Pn+vn9Xr9lH/Xn71er7e/pfWp66Wf966dqV+Pz0J+SfvS8Wn0IB3X9XtPfq2uZu23wme4skpto40fThtSXUvap35fJb/ENtK/uX2OrmnF8QpdS2SczQue/keVa+N3Vf6etWl0+ak2vO2/otx6/l5hf+2PlXwr/Jfb/iq7SHWumR9W6C9y/FnbX1pfqs8I6yeJ3mfyj2bttONHfOS13BVLjz9Sd3IjYL3rD3lXAbBY4b+a+Om1sZqo7beertU2GZWv4OpjxnZXnesn65EuK/+odTojY7T8Gkn+VfFhnR9mocbnsf7w1s9ovuHEl7f8K7GYH1bOXzN9Rsu/2v7Lvmsi6k9Sn1qrSNuYXT9asv3fhvQe40vra/ufgTqOtIJoDjKL10RkrT+t/3Lbz0p2+UfUk8DlA7OTSkTubD/r/N3KCZYLPsw/cizXH9b2p9D2v0L+XfOvBxz93D1+rPHeH4xYFd/eN5Mt2bqhXKFIz/o7HCGLo0W8O3Ic++/wryaL/XtkkH9mI7gTS9mouPXWieU7Ih7xu7JP5B8dO9YflvbntEf1T8WXVn7tWKXjW80K/WaG8g/LHBRhfyBtP/I6woPhkdfeY+fy95EyRwsX7maEum7nE8v6yNqODVXPBhE3cyNaC9me/3DHt+qamfqz7UqPlGSzc41EfsruPR/ilkfA80hRCbffaPrTsDp/7/Y1rfwz8eF5IkiKZHwW6w9JmxFPt1g8EfJ+YrlyftDqR9q/1/pyJ5L49M5fnL4412iO3kdZP/T49Xg8fsoPegFQ3tWn7mD06pfl3HaoIwXaIxm1XKPPWgYsP+sFAbf9kXytMcw602gjVzOStWyrVz7qo3fdCv/qyVojlYHrv702JfFTXsORfeYabvtUXqh/18gv2WRzfGTUjlSHVHxqx8mdJDSTyaiupf9x429VfpLmbw6cOGjJF0X+Xl89GSX2b7Ujsf9K/+mVW64/pPLN2E16A39VfPWunfGfUdxIb7CuWEOUn2v1K1m/UfV7OYXbd6//8lqpf1jbhxOf0fMXd26VyshZP3rztqEcEXFHvJNVE7o32k05mCOjr9ydSDaRLmiiyL0aK5tkz9/Z5Qc6Vtk6qs94y+XdfxQ0G0pgRwb9szeUkrtIHozu5BzHOpk/ZVEHZFD+VwKfAeCdHXdes+fv7PIDPyI/2QD+wD/iEn3/dSF6QgkAAAAAAMDF9/f3sPzr62uTJAAAL7b/2xDgD+5yA8Bj5zETHHkFAAAAQEawofxQsBgFYMzudxZ6X7xSll9IjlgDAAAAAFiCDeViMp9D53wLoXRRK/mGrihkePnZCq3/Zvb/Es7TQu03DLauoTaV1tzFfp5Ezh/Z7Sv5FsmsYwQAgIyYbiizT16fRrl57C10y7J68Ut9C2FdHm3S3/3UJ3N8ZJZdA+UjUn+PFgOgDcffNfnjU+NJAid+8OQeAAB8+G3ZuPYpR0bO88Si4HhfII02qVHYbbuIfsLRwWXLlv3u4P/UsVPuU5FZ//aMiwj2i5QTLjg60ehul84j2NeSu48PAACigiOvCfG8m73jSB7u1ucBNgIAcKD+sTcAAIC8/NtQjt6RK++Y17/XcI6EXYzer+v1of2mw1791vg4/bfaGNWTtp9tsrV6ujDjf72jUBx7UXL06lFtzuqnbpczzrKMU18iO/VOLfV+4Yx8XCTj+LQn0rP5i6o/k98k+Z87P1EyrMivmhtenP5Xtl+2M5ubVulP6/+cVywAAAD48Bc1e1/qiAMnhwAAAABJRU5ErkJggg==;" vertex="1" parent="1">
          <mxGeometry x="-190" y="130" width="916" height="22" as="geometry" />
        </mxCell>
        <mxCell id="cpKgAFX4QUd4WCAVDUvz-10" value="&lt;br&gt;&lt;br&gt;注意做包时用的公私钥要和升级时用的是一套，升级会去用security/otacerts.zip" style="shape=note;whiteSpace=wrap;html=1;backgroundOutline=1;darkOpacity=0.05;verticalAlign=top;align=left;fillColor=#fff2cc;strokeColor=#d6b656;" vertex="1" parent="1">
          <mxGeometry x="280" y="-80" width="300" height="90" as="geometry" />
        </mxCell>
        <mxCell id="cpKgAFX4QUd4WCAVDUvz-12" value="" style="endArrow=none;dashed=1;html=1;dashPattern=1 3;strokeWidth=2;rounded=0;exitX=0.429;exitY=0;exitDx=0;exitDy=0;exitPerimeter=0;" edge="1" parent="1" source="cpKgAFX4QUd4WCAVDUvz-9" target="cpKgAFX4QUd4WCAVDUvz-10">
          <mxGeometry width="50" height="50" relative="1" as="geometry">
            <mxPoint x="230" y="100" as="sourcePoint" />
            <mxPoint x="280" y="50" as="targetPoint" />
          </mxGeometry>
        </mxCell>
        <mxCell id="cpKgAFX4QUd4WCAVDUvz-18" value="" style="edgeStyle=orthogonalEdgeStyle;rounded=0;orthogonalLoop=1;jettySize=auto;html=1;" edge="1" parent="1" source="cpKgAFX4QUd4WCAVDUvz-13" target="cpKgAFX4QUd4WCAVDUvz-17">
          <mxGeometry relative="1" as="geometry" />
        </mxCell>
        <mxCell id="cpKgAFX4QUd4WCAVDUvz-13" value="" style="shape=image;verticalLabelPosition=bottom;labelBackgroundColor=default;verticalAlign=top;aspect=fixed;imageAspect=0;image=data:image/png,iVBORw0KGgoAAAANSUhEUgAAAvAAAABeCAYAAABFLyDNAAAgAElEQVR4nO2dP2gjy/bnv++3jx/7VmAYDIYLhrvtYJyME2E2GFZW4Fhy0LmlCZwa7aJEP8X+OWl2zaQTWBL8wg5Ghs0m0AhuZJT4Jp7AvcHAsAZjMGgfLMu+Daqqu7q6qru61bIl+3zgwh273V1/T506dc6pv/z+++//AEEQBEEQBEEQa8E/vXQBCIIgCIIgCIKwhxR4giAIgiAIglgjSIEnCIIgCIIgiDWCFHiCIAiCIAiCWCNIgScIgiAIgiCINYIUeIIgCIIgCIJYI0iBJwiCIAiCIIg1ghR4giAIgiAIglgj8ivw//RX4N/9c4klKPl9BEEQBEEQxPPyzxXgr//+pUvxZvhr7r/4f/+33BKU/T6CIAiCIAjiefk/85cuwZuCXGgIgiAIgiAIYo0gBZ54O9T7GPk+vLb+1y3Ph++1nrdMBEEQr5Bab0TylCCWyFoq8C3Ph+/78C/7qIU/raF/6WPUq6X8JaftwfdH6NfLKU+tN1LKEistvBSlEUhTHFmdnl8IsjJbteWzw9vE2N4pf/lxF5WnGb4O9O+9ewgAp5naVy9G24Pve1jmSEiM43ofo7LmSb2P0ZLLn8WqyQ09+edey0uXL6tCupwEbGRlrTdabB60PfgZ30j99srLeakcZc5fi/ppcQ7zfd/YP6yNnnecp681TJ7Yj8X1kD/EOpHfB/4FqPVG6OxXwn8HVy7cbvK575MZdhsd+N4O3O6Q/d37W1x8OsM0ehv6dQfz6wucTeS/bsHzm3BSyjG/vsDx+TTliZJpH6G6McdsMFzO++t9jE6rqARjuF3pG/VtbAG4/7VIXWvoX3ZQ3cj3V5ltXD/A7gYwv/6OfKVr4Wi/guCKjwVRd82TTsOH35B+8DQLx1CtN0Jn81vUXm0PfiNt1EQEVy662s3DusLnjNQ+6Tho+h7gdpE6olP6xgbRzqsnN0xzIsCYt0mtdwgHc8z+sBvdtd4ITWeO4M8aar2TWH31RN8qk1pvhKNfx4uN7/odvl4F6DR8+HXDmPrjC8abHTT9EbY/Hyt9YcGgi4vfRug0PLQG5bdDIZYl5ydnOHY8+Kc+Rh+fee0CMD3/hiO/iWqjBUzs6lb7bQvQGVnqO8DDHE7Dh4cUOZpDHseZY6aOJ9Evn3WyrYU9B5hffzWOodWTPwjb5/WtRW+TtVDgp+fHktK1i8cg+UzL66CJMdzPwOj0EP36HfC+Ajz8jE8+rgBW9jvw/Q7/YYCxe8P+Tzuw2cK7G75Dp2BU0fF9dADMr8e4fd+ML9SyUmil8LAJCwDVUx/+qfw7jbDJC68Dri/gqoLdeYcK5tp2VoWSjK7tkgo5b8sfhp9bfgux/jMjvl/rHTJFM1a+7HZkwjQq4w7uMXea8P09pggNunAHpjrJ9UDUniYF1VoRfjnUPpnHxk/2YsKUeB9N3a/ERnJyhuOcY7vl+Wg6AKRxu3Jyg5NcUMPS4Ii3bXLOa77R9tDZr0g/nxrHjui3NIWjODXsbALOvlCu0jbvkZyMEPNwiulkiumAjaOTXg07mx3eryoVTRtFm5NoPJgwj8Owf16DnB904Q5a8PwjtDDlm8R8MjwdiznvNOH72pZW6lfDwfsK5j80xpnJEGeTIevXzM2XvEll5YNUr4SCzOVDiNLvcr/E1hNAvw6Jfl9F+TPowoUHvzFCP1hwbBEvzloo8LkQi3+9j9EGEMR2/jX021Xcawd7C17eb4i3qlZZAAjFSwuev4ebnFavWu8E1Ycx3E9K+S87qOIW3xeaeKwdKsE4qbyDW0Fwj5+mbyQWJi4kSyYUgAJp05HPmtTC0T64JYWX9XpWpEQYnk8x5O847NUwPJ8CmOJscIDR6Qn69WlMKIrFMrhyFWEZX7ziG4VVQlGUgjFcVx2TPt+88EcKWHdankGpz/7LSIFYZAP0HHIjA6EUqO2X2AACoSVtfn2R3dZc0UcwXpIVdophdwp4PppCMfhk2MgmLIs6huiGY2yakJstz0dzM72vh103psA56imj+j5HczKxknLeZpOM+EaC4/g+9q5cdFW5Kr23KKWcTrePUN0IMD4H+pd+yultcvMVnzOazVmiPdSNpJo9Jbm5iJRhcZqblAdsbGZVVMNzyp/BV8zqnVwnI8RqsqACHwmTZ3cvyaD2cRcVBLiJWayOUIVqhV2cnc2UY2vujqIjbiViVor59QWOfx2hs3+PsRufXLXeCRNw7oJWWt2RbcLapAhBrhzlpWKylBt+npaEqtWoooIAY2WcMeUvbYFmC3h3IpSkAOM/gMN9nRVPw5P6A1nB4ITH1SP0wQS/6N88Cu1O2qkDEPZJmfMtPg7FwjbH7OoW2VbAHbzbEO5WO6WUxxrpuLys9nhOuRGj3sfJfgXzpzkc2cLIfy5vAEMLqlDI2x78Dzf68S8p+suWz8PuBbYvT8L66N2gNBb4FOW6hFKh+3kbo9MmmPdW/Dts7M8x+5yteK+SnDfLFKZovpukyRzNZqO+jS3McRtkuD4KRdimz/jpkq3LVuuDAzzNcIcphpoNoBWDLtyUdjGdkuZBf5pbDs8jf6Y4mxzBbxyiXx+SFX6NWUiBb3kWloASUI/8hNJlXpTYURyCG0lw1NCvbyF42EosIHkthvrj2eiYcH49w/1+NdY2WosBtxLFFdAWPJ/5qMWEXttDZx9WC01m+T84QDCOT9zQ2sQ2ZVtS27LysSO9vIGji7jQxKj3cZjhc6inhu1NABty/3zFEAc4zO1Ck8GgCzfoYxRuCvIfgd+dH8PV/SLnYpgHYa1MWkhb8BpVvHMAmOrQ3mMbogGg3djkLIMdspJh9uleNbkhSG5qA+w1xMkS0L/soOm1MOwCHo9Rkb8z/XWPk+uvkV993cH84QY1IKbwZbuRlM1Usrwn3aCyLPD2Fvp0jPU2unIkN/Lz6wt807rvrIec3/pNHQ0S9Ts8Bk0+xthXWID/Lb5zN6YkSVeUxBPqyUjwiDmq2GsDGCjPJU48mE+5bCzJMszIp5u6mBctGa6XwZWLrsbVJeIgHkuVwqrKHwDA4AZBo4ndjzVA29/EOlBcgecKVXA1BhpNo/WhDIQrhThKjpSi6Pj+m/wHoYX5jh3FPTAhEC4u3CftVqNcJQIYJYR1OKZsZFi4xGJiawELfesM5ZAXmmITmAnK4MqwPAhLjGUQ3XPRalRReZrhIrf1JFIq2Pi5x7fzKVA/sPvr8LhZsUwpFihZWM+vL+D+OoLfcFBt91GbrLZfu5khvl4fsqBCw5wAECohVgtoKnYbnpbH+yHDCrhqciP89/UFjv84ML6LuWM14fuGOg66OOb/G1prPw2jMSas308zXLhnmLY9+I0OfP9oCRvA9HmR5z07v24R7DML/dECykm+zWAa0zWW87HSxZXvyRRnkx14fhOj3h2Oz6fsdEH4Xdf7GDV+4jhnPw7/DNBsvMMO+NZh8hP3p1VlM8EV9ZiSKrVH4n17aAGa/uTKrhTwmnC5VJ63tsCnZnn5jq57BrQ9jHpf9e8S7bii8ocxxE3QRHMz7C1iDSmowEc+1N0B4KUs7uXBJyyYcPMcF92BdHy/2Qmf69eFhXmK2scTVN9vJ6xTJuyD0aKFiwUzdeD7J9IklTJ0uGdAb6T8Xs/0/JgvuJK1td7H6PQdvqmBOUVo77EsFwYrAzvCk/3fmQV7/uOu0OdKcaFpe9wVZRFFmPktqhb8d40R/FO7zB1CkIb+2pKbwPz6Aq4rl27KjnJ57nlRU6a8AdogPG590vvavgzpi2K+Z8uysDICjK3aZ5XkhmShTttAOu8i1xOnCa891CtwoXtNXC44mGP2WYq54G4FLc9H0/dxWKo7zTQxL9I3crogVqH4ngGinCVkiSmyoUz242rKeZ3CJjYPPx86qEqKWeg2GKvXEN2rPfiNDrzeAbZUo07auDORsLhzJfH9AWoiwLq9x+I8/pR7NgrejsGtxKoFn8HmsDYbWVoWK+26k/+ktMbf5bWnGW20SvInzt3DHMjxDWL1KKTAy1YfPFdmZx6FDcwxu75HteGhFTxyvz0AH/hzin/39I9bnOzv4qAOTEvx9ZIFupyBY8gFh4eWAzQbW5h9dtEV3zw/xlTkldUeo+3B831mJSmjmKmYA1R3NpUjPN7uRVNKLu5C04LXcBBmFzEK5+TxuPztcBHTKS7catjyfOz96aI7aMHzD/H4+Rhnjme2PpuypcgLs+6Z+gFSg1h/3WO+X2ABLYu2B7/+uJCibRNo+CysjNwAYv7Jug10OLYDjF1uRW578Bs+/IYmqK5dDf1lI19uSeYoMMt0C57fwaiHpfnE59n06YhZ0HP40muVGOvAZlVZXmU5r44F7vbI/3X3MAc2o9/pDBcAgEEX4w8+mvtVQPa7FvE8eTdRk++4bVdR/RDZzO8e5oATWeVZgoS4jzdzxQ0wu95CNeauyDcAHzQ2eGGIMp4UWyrlagaaEH18lDAwTQddwCYd6UrJHw0b0okJsXYUUOBTBMISqX3cBYIAc2cL+KOL8aaPvQYia3EDAPaYsif7d/NjvHcO0GrEfSOjCRqlY8om7pKhsyI3G+r7BWyBdZXMBqJMN+GibVmU0hG5bSVru/MuGVRjxVSbiSLv84k4C41CnOUrmbRUCu7x+LAFp0jWgCVivTiUichUgio6H0RWDLuMFzqr5fYmkqnQXoDVkRs6VCVBUtwFIiivHc/nHboRcezdRorHKeTFzgc/Iy+9ab7bbg439BZ/c2kEKyrnebDso+ZXMSPLJrOs7nj8dMCwWRt2x9jzm3CeHhE7Y+WZSmQ/+WyE9T+y6k5/3aODLWzXAUz0Pt5AgNnnLr5/HKGqvPHuYQ7sJ91oRMCrORubZYICAPpz37QsNLy2519wcJneRqstf4h1J7cC38oQCMuBpQG8vXrErsPsDMOuy10NbnEHnv/CcZiVNTaZ7vD4BFQ/tMJgIr0vGUvHlNuXzNbCk9jpR5bocdBBEzfmRUw+Ul8qrK2c/ShnsAh4zZcaraRgInjMqnh1i92GMbw1uzwfd1GB3LfMGlJWm5oUlUQqsxz+wWJx0B8flwm3ND6McXG9xVxclDKafXBNR/z8eFvndmVUqJZxwdAKyw3+G1lJEC4ueqeJSLlnymCA8VWkRIZ/bxO0utSsLzm+1dafbpXqalXYAl/wPc8i51NS/EKy3vY8VB3TRUS8dML3fKOKk14N03BdF6lxTT7oHOXSP2ZxlyzHwSPmcFggPJg1Op4ikacgBVD7aKqLGggrDE1pl/ktaoG3ISuby6rLH2LdyafAt7lClSIQlkGtdwgn+IZusI2R9HP5qFYksItZWUNXBheZCRB58KZ+0mdkSCmE7Dsq1Jm4xVNdzLW5bT8UWYyFRURfplpvhI4/wvbVLXbTAl4NmI7Q2cJ8jwAOth4CYPMRX4yLYg39S5al4Szox/o9L7ry1HojVJ9u8RNbqMrZKZxIEDqnPnwAsl1OR8L6WUrGmLwnGIt/p9Y7LOeVws9V53b1jJdVraXc0Cm8MUW3hoP392xstb2YPEiMw5Sgt2fDmPlFoM4tbqUt6/SmsAW+LEqW8847VFRruVCixb+59ba6H7+5M3lyIU7TecadfeUeC+sL1aTL07jCHWaukgJZa79pUiRmwd1yduVA2Ez3GWBxC7wl3A3p8GMNmCAWL7YW8kcdS8RakUuBb30w3RiH0KKa8PmL+XUWU2h2NoHZ1RBAX/8AD3KEkm4tF847JXjTklwLRJag0B1vC1/MEm7lA+IWEcO7ogCrqv5a6wJEi8d3HFx2sPXwFcd/HsH3Pexox4Uc8Lf49+NESsIddov7wL8R0qw7QFLpEXLCqfdRG7ycD/xKy43CPNfGriTyWuB1d1QURLdxL3I3A4CVkfOtDw7wcBOvl+nm7KcZvqgn5dLGSD5NnwLYvuzkz5qljn+usDuh37qoaw39S9V9xoYpvv84QVUKhM12nwGexwLPiDbO8STLqy5/YpmHiLUklwKv97NM5g2XEe4LgFPYHWDY5UnTdIqcdJlL4tu/bQFPt+YdpsM2F/dXLm7CSyRyUvho1Y4wYPjzIw7LSEmoCTTSfDW83hsbVXS8FqZFj9yl21PdLstbHebfEHnTxQ2Bz+EqIvkNB5Mh8NsCVud2H/3f3qG6rx9/OncImyw0RUimKiuPfC40Ik0pSy+70NhZkJWWGytGueOnBc8DboDcFng75SwbkTJ27HZxJ7nkDLsuhnV2V4MHZVyn3fS8EnJeSgGsjN/I0i5Z92NuMUo2scRpunCZyRfUmHSx5G6Ym0p2k7rOfcaO6a97dMKAThv3GeDZLPAprLb80cS7EWvHgjexZiOO1IoFQqYjfK3DI0BFaBh3mM47VFBBtVFlu9+gj1Fj0TSF5RMtql0MJ8DQ8eBf9oGFXBCE3545vy5TdMWJCVsQ/Mvt6CZWgzUqthTrMmromJzheMKzNjTKyHlsqk8UWCYW95sBgF7B1zpN+NyS56o3L2W50GRlodHV4rfYIXmCnc1KKYrPokS3FA4xHYCNHf8Qs8/H+F7KF8SFL8WPfldBbrBbhaPTzODKxUuGo5U2fpwmfJ+NbTSa+Szw4WVtWcpZBuJWW55ooQbEs23EXEO4fABT0I8ny8/So2Ir5+M3gGpuHBVKodhs8Pz/LNXhDt5t8Ps96n2MGk7sdl8A6S4zqpsOAP2dIvoTIu0No7bIt6tauc8Az2mBj5BvpTazCvLHvh2JVaYEBT4jq4G1H11OwhvruBCqH+DwVFUsg8Q11YA44hcTvIb+ZTNDuKRMzFKPVjmyIJav0x504cKDv+BFJyLDwGGvhmFskYrnNGa/GaLrMkXspFfDF0BjjZItsXGF2c6aJ4R+pMhrL0RxUvL7atJIAvw9n2QNO55FKe/NsqECWSB3cIhmTiSO+zUWmmQWHcFys75Yu9CE2X7ksTMMM6iwDBPp8yW5gdNlwpljVtQ15wXlRpg5psHSCLpKHsGWhxSLdbp3dloAqzYdXmx+lTF++DskV8lWTtczoeSJVK/pQbnmfPLfNuOXvk3Pv+HIb6YECMuWaMN69uJynrn9BaYTWEkpD+ePfDN0A8wdclJD/5KdMmTlL1dPLFVXD3lDYRdA7ehvqlXLkZbHnZMY08EMs81qrLz2Fnjp2WAM9wrISiOpJeOOFfbMKugtcs75tAoRq87SLfBLY6BYIHJsFFRXoJ8Pc7ybxJWjRCaV0PKhsGB2AiFwYseiTzNcuF39O6VLWXzf/ua/OMIKLwctRa5QbuJ90aJW651kv7uwj27G3wZnOFat3Xlp7xmzKA274uX8khMRxCofEdcBPAUYf1pyekd1fKexwPE0EF98ddZPOxcalpdcqxjkqUuCktMevqDcsEr1mBnEale2XCw4fqJ3ZMc5JRQ9aW6pm9jidZoqf1fCGFoFOf8pRfiZxrHOWGAln7PkODOEiM36tLTbb7E8o58t9T6y00hqNjhALGhYyyroLSXGmRAvy19+//33f7x0IYiXQUz28t1WiGellKw3xJuFxg9BvA345pHW/NcBKfAEQRAEQRAEsUb800sXgCAIgiAIgiAIe0iBJwiCIAiCIIg1ghR4giAIgiAIglgjSIEnCIIgCIIgiDWCFHiCIAiCIAiCWCNIgScIgiAIgiCINYIUeIIgCIIgCIJYI9ZbgW978P0R+nXxgxY838eoVyv9U+xGPNO7a+hfst+z/+QyZcH/1mulP1bvY+T78No5C/6qsWy7l2LF+6zl+fAv+yh/tqwIvP1938NLjZC1a+OETCWIRVhxGf2mWMO+WNU1tO1J+p5+jUnXGRch6se1VuBbHxwg+JZ+dfGzMMXZJxeu68K9CpbyhdrHXVSeZviauD1teZuW56TWG+VXtOoH2N2YY3b1tu+PLNR2aGHPAYKJxfXwr5mlLhDmNi7WZyWUaN02FASxdF7HGvoaMes9Lwi/zXZ+fcF0PteF+5y3WEt6z1+f65ulU+/j0AGCZ1Lehl33Ba8Zb+Fov4L59fe3rWwptBpVVJ5m+P7iG7j1o9Y7hIMA41USjGUzOcPxC46NN9HGK0kN/csOqhvJ38yvL3B8Hpeitd4Inf1K9INgDLerSnv1nXPMPh+vgPGIIF4rq6n3tD44AAJ8O08v1bJ0RlnvWVsFvvZxFxUEuHkLi2N7Dw7mmP2xSsP4pWHWzVWb3OtBDQfvK0Bw84Kb0tcOtfGLo1XE47Q8H01njtlnlynj9T5Gp034HqS/bcHzm3CCMdxP/GdtD/6pD89x0X0LaxBBPDerrPc8PeLuRT4c13uKK/D8GCFEEZa13gid97e4+PQTR34T4kmdBSQ/Ymf21bg4xq0qAcaxIw4mkLeUsrC/uY89ywS8VM2rxQW2+k4AwIPp6Rr6dQcIxjFrT8JqtN+B73fCfybaWe2vRJvI9f+Kbdna9DTDxSfFDSDxPsN7U8cJXxjDXzpo+j6aKWWMysqtm+pYqvcxOt3F7edj/GxI7ZyogzQGfh3FypjsY7WcJuub+lySluejuamUpd7H6LSKe83YUvs56tfibYf2Eaobc8wG+tljZ5FMK1ui1kpZ42XTzTvtHG178BtbmKl9q9aVt2dYMs34Veeg0/DhN6Qq874QdUyOCW6RhWZuAIY2LtBnGXLWVJ9YX6jtgSo6vo9QWujmt1zTsJ/V8qVbpQu3nYmwHqb+ThnzhvexU1xpLk/OcOx48BuH6NeHOJsALa8J52mGC7ndB18xq3dQrfdRG+R0Q7OWUUCm5T981ze8O20yhUd+b0bfJmh78BvA+PMjDsM2ldYDZfwl1jKLTZM8DzLXKav3pXwpZV7kXkMT86j4KUzL89HEGO7VduydWv3CYu1mFDklMveFXd/an3bZrxf8vRq9J4bNWEn0WbLtcvWFBXl0Rq0uaKoLknpPIQVefDRWsLYHr414QTeq6PhVBFcu3AF4g3fgtaeLKcFZO7P3J+jgFhfuGaZ8gDUv+7jLI8g44TEIHwiLIS1criiL+JmB+gF2N4BgEu/M6fkx/3v9ZiT+jj5GH27gut1YOZrMzKQIAgdNv8P8uyRFseO1MBUDik+cqP+5EFAWCzZhEVm3+HORdWuIrjuUnlWVOHM7pls3K6ie+qgGY7juUF8H8eR+Bz4CjF3Wz7XeCJ3GCP2ACz7Z300W/Kr1TYwP6bnFxowQjJJ1EECt56Ffn+JsUrTt+BGgwfUo2WfsZ157GJuzTAZIwrDex+i0g1EP+gVZ3bh5LaDQwqz2rWZ+S64zbMOUfIs6r3WbJwCYnn9jBogPLUBuXT4vTSdA+jbO12fZ80eqoxMohocRHye69rBX6sSim1xsk1ZpNi9G6IPNnaJtZyRUrh0c9moYnk8B1NBvF1DeYTrF5YoDgN2PNWACbG8CePiplHWK7z9OUN1/hx2gwCmgjYzKbmPBbvsQt58v8NjuYLc9QvVhDPdqD35jFwd1YJpLydzCYRv45o6x5zdxeHkC/LjABU7Q2d+D6M1ab4S9P12Ey4r29EJFKIwmA1L2eLdDWpPEWstllO/twO0O862haMFrA19cN+zrluejqekLa5wm/NNIvifWHlFmm7VbKKpPim7h9VEzxjml90V23yb1GdOm3Xq9COuj13vi70vXQXVlaXk+mv4I2+rGxmnCPzXrAYnNnmIEkeWjrc6YaBNJ19CPw6Tekz+INbRaKAveoKtdAGPPDb5i9gQu0IuTFbxawa20QE1xNgmAjSqOXjqSObTK2W8kSgnimJzhOCYAeZvAwZ6mTYIrVxpAQ9wEADa3w8A3oZxEZRri6/Uc2GCLBX+Kn5J8kfppiO5VADiHi2W5sAlejSmMvHzOXjJo8GmGC0l4Tf+4xRwVvHMA2QogT6jp+Rc2jutRMKDwS/uy8OkSR4wVRdBMz7sL+t2mB6/ubFaAp9uY4jk9P47P7VAGSEJ/coYv13NU9o+kNo7aL74AD9FdwKo2v76Q3jfF9x9zYIMpUuXDx78ydoTyp/eDLCNA2Hb+1JiCqWxmh90S/LPbnkF5lyxBUj+yeVFBtSFaqkjbZTDo4uJ6jsr+Cfp1oNY74fNEo7w7zVimCDVIkY11+Si8Bc/vYPfHGLMnoLLJVPOfD4jJvzhb2C4qyzJklF0bA0AFlYdoPaxs3Et/I2RZHirAj+h0u4JbSa5F9U3IhckZvmn6O6KG/qVeYSx7vQjbTt6ochlVbP0ZoqtseodXM8xRYRu9QsTl+/T8GwL1fZZrt1h/4hvzKc66JhmU1heWfRsq2dE3WB0UHc96vZBKl6b3WOmgYjxdxJ4ZdscIoM4fgPWFSQ9g7SECVscBuN7ghj/L71UiXGEkLxKuH1feH+hljUbvya3A5/M9V5/LEoYWiM7706wAzH8olp3gEXMAW7+9bJQ5U3xvcwRd8kGo1qcMeJskmeNRSaQz7LpwP0W7+m2NRZNxj5+ibvyU5FY9JQkeYxOjCExYpbejOj6mv+6hXWxVy9rkDMcuFwzCUvigerupSiOfjCX2U/6xYodY2Ezz9+5hzk7OUjKVmGRAoo2FgE+Zq0W4/6XYQs+Pl5oFYPinumCmnwBltbEV1vOHy1SnWW56uI9p1iBT/ZPyPW/b2RAqsac+32B8UTYrUlYwN8oOVtnvmNuo7cH3D/H42cXxeXy+D/9kBqATeQNQ7+MkZpHLT7qMsm/jxLsW9s9Vxl3i9MHM3YN+VQG2+Ymi4aSk1PWCt52mHVTFbCEmP3G/yN8n5PsdHsONYwqJtTvv+pPRFwYSfeu8g2kGyGum9XoRkq73WOmg7T04SK4VOoMkgKWstanUt7Fl+p1hvun0ntwuNEmrxfNSyCI9+Yn706q5wVaV9p7ez7sARl+r3ExxNjmC32AnGlPuQnO0H19sar9tQRwT+6dlfFfArZtXz5f+MCkEBFz4lD7xa4Zj+8Xfe/A+PXZken6MaduD35COCBUL+s5mBUn/bYEk5J13qGg2hGuH8HcWriDCEqN8o90AABg0SURBVKKNIchuYxvyzJ9h18Vdb4TOfhO+z3pksVijCqr7TFjox/4O3m0A2Ii+F+NJ+v9cbWfLFGeDg9BlwOrUa9DF+IOPphO5gIS1Cd2ZjvV9NujCBXP/DH2kn2YYX8/R3JeMFqWSo41fjOyYnxCnytxEDbrDUtaLFPnJjHn55kfSjYJh2rKURebazZVB8zqlkNEX/KvZfauJA2HGi7h7s/V6IcjQe+x10JS1Z6Oo61tJTM7wreGjuX+EFqbcheYIVaPbkF7vya3A3z3MAeelKl8wrVDeAb4SRO4Hi1oWo0wLavBTMf9sJmyVwD9FyZv+ukcHW6WnWlut1HzLWryn+PnQQZVbCUobtcItJyuqf9BlMSsQYyfu+8hkgIXPffCIORxm7VrrdHvC35kpf3cfd80nQLZtnPXFnPMn8uflfqn7Kf6lmUiBkA0fHtT4AGYpdB5sAgxztJ01LXinVVSCAIFT1ca26GDjNtp0s39X0Xwv+w0DQnme/5BUBGlOhKXw/CUas/K08UuQHveUIIiCBDuXfUBxR1nWemEiry6g9+3mvvOlly7Cau0WBkrbTUlGX9j3Ld9kxvzBk26f1usF+0qm3lOKDvqCRmiG8GSIb2xMAa8mvSe3Cw079tD7TmezoKuB6ZgtA3bkkmUJ5MduS4S5Jyi+unzXlcDa/SDr2I21eXkXXkW+ZbEjanWRyXn0aT5Okyl+/F7IJWXyHbfamA21HPo+aDWqxiPG2Ns+7iaeY2NFjikwY9d2xdpg2OU+f9KRo+33xBFzoZgXfgS6dHgZs9zrmG+ng702t7AbZJhtG2e2YWFXsynOPl1IPtxxtDLIwLDL3uM01JtZ87lC2rYdgOiGwxQXrpbHfXe7Xe433rS4iEu4VUR9w9wpNLEKVutMWpxDdDN3ngvC4mOnBHfTZcLnZ644j8kZjq+YO1JHdWUqwbUygrs4anzx9e4XWWuoGDtLvlAosebbrt28/CbfaR1pfWHZt6FSKesBbnIDZr1eAFZ6j5UOOrhJxhMAWIa7ayHCGLe4q58+uYtZ78kfxCoCUVWhziOA0xCCt1DwUrgzy6mIcl/FuJ+kOuDNqZDKhC0YLIOCKNuosYW55jhUBKVkCwzhA2sKzGF1jQmztgf/1E65NL0v00+PB70kF38DXIAng0skxKDPe3lX22MR67mDCnnAkKIghIFzYTnEghH1Qa03QnNznjggVBVz07GsCGiqnsZv62RZaJSHbdpOxI6ktkEN/Uv1dlC+iMjH0YOv3Ac56ybRYahgxQMIeRYaTkIgG1OULgM+ng3BVBHMd9JpMN9RrQyzamNOVp9Zz58WPFXZNcZuRG19aHXr5BRnn8bacTi8mmGuW/y1WLSdqM0H3u+GzWutN+LZJ5g1Lwwob6SPxZbXSSYQCNtY+tt6H6OGo/Grl2h78HnWEu2Cy9sfyLF51ciofG38zHA/bLl+Lc/XyrIYPAg5IRPyrhcZiE1j04sHU55o009nraH89/KYrPcxsnUfsoJnU4qt+bZrd5SoIz5WeBYa0ydNfWHZt9aKufV6Yan3WOmgbO0Rwe5RPRbRQUskz4Y1Re/5y++///6PIt/PyhGqVUzy5qSVyUj3ZiwXTMcScR+veZgPHNJRT5ofmJoSyaAQq3WOKSfsHRB5SJX0YelprWSSG5C4D6xSj6cZLgbAidKeURqvjGNMY32Tx2e5xkFGvlurFHjasuny4Uop2rKOqC3z8MbGXjAG69omoE2pxf/xNAvvSlCfy+5X+zLap5pMjnnTN7W+mbr2tL6DQL63geWe3v2h5oF3MvPzmjZF5rok65yajzk1L759Os/87cJR549mzKe1UeKd8vukXPvqkX0lMY/08rFI2yWeS7t7wlh/0X6acqWsPak59GPvD2uY0cfRvNW2hbWMAjLbOLYuKvn1LedLjFj/x2VkYn1Qxu/8+gJfcKLMAV6mB0P++KXqDZbzWi6nUdaqvw8wdm+wl2udlkpmKzst124AFnnqc/SFVd/my2OeXed8eo9NnvpUWSe/J8fdLOl6iKXOqCuboYxp3yuswGeRezGzed/72+IbgHVCXKaxxMwahRFCIjFZaoUi2+1paZVhU/myNnpvC9Y3MWWYyE+qQkRtnEoRZfK1QjLqzZP3PoZVROufD1jkMzewynpPyRgvuUvoV+l6T34XmhdhiekUVw7hKrSiV7Dz1FFJHzV+zLgkSknN91bhR3B5Y0eIOMn7DySojVNJbTuCINYMHoSpi/cxpqhOf99K6z0lwzLzaPQZJTVplt5T6CbW5ye6wfD1M8XZpxVWAnhmkcTtityHc1kTMMqyQeRGk0GDyAfzvZ5j9tlgMaM2NpLZdgRBrBk8U5qj3vQrbkbOm4lrxfWekmGZdHjcV8y9lrnfCANplt6zJgo8sTJMznAMfq2ykp+YjseJ10bkZ2nyUSZMUNsRZWJ3l8lLjTXLnPjcv/k1MOy6LH5Pzd3/pKZlJVSm58dAb4SOnIobQHZ8TZyl+cATBEEQBEEQBFE+a+IDTxAEQRAEQRAEkNOF5m9/+9uyykEQBEEQBEEQS+dfz5kr07/0+i9ckuKQBZ4gCIIgCIIg1ohCQax///vfyy4HQRAEQRAEQTwb66zPkgWeIAiCIAiCINYIUuAJgiAIgiAIYo1YbwW+7cH3R+jXxQ9a8Hwfo16t9E+1PB++8d019C/Z79l/cpmy4H/rtdIfq/cx8n147ZwFf9VYtt1LseJ91vJ8+Jd9lD9bVgTe/r7v4aVGyNq1cUKmriMrLhdseRV98UpYw75YTdmj6koanWqZcnsN+zGNtVbgWx8cIPi2AheETHH2yYXrunCvgqV8ofZxFxXtVeTL27Q8J7XeKP+ErR9gd2OO2dVbuaVXT6G2Qwt7DhBM3viFG0vdZJnbuFiflVCilVzUiXXlpcYxkcUqyvca+pcdVDcCjF2uL7kujs+fr4SrozOWw/rexFrv49ABgmdS3oZd1/p2rPJp4Wi/gvn19xWajC9Pq1FF5WmG769kMj4ntd4hHAQYv+abcydnOH7BsfEm2vgVkLzhM99tiASxaqyk7KkfYHcDmF9/TZ9by5Lbz6wzPgdra4GvfdxFBQFuVmmALov2HhzMcfsHqe8RzMIw/0GbmvzUcPC+AgQ3pKQsDWrj1Ycd5zc3Z7gILYIXmD05aJJVmVhbVlv23P96mRX7NeqMxS3wbQ9+QzJbBGO43Wi41HojdN7f4uLTTxz5TYgn59cXJRyZCIu0eSdX643Q2a+IwikWlRY8v4ktpSzsb+5jz6rWmeDKRXfBAZC0+AB4MD1dQ7/uAME4duwTrx+A/Q58vxP+M9HOan9prExR/b9i+7KD6gb/xdMMF5+Uo7jE+wzvTR0nrB+i3zpo+j6aKWWMysotDOpYqvcxOt3F7edj/GxI7ZyogzQGfh3FypjsY7Wcc8w+H2uO4dTnkrQ8rjDIZan3MTqt4l4zttR+jvq1eNuhfYTqxhyzgX72JMaWMrezy5aotVLWeNl08047R9se/MYWZmrfqnXl7RmWTDN+1TnoNHz4DanKvC9EHZNjgh8HQzM3AEMbF+izDDlrqk+sL9T2QBUd30coLXTzW65p2M9q+cSRePjV2Lwo3HYptDwfTYzhXm3H6pQtl6O2D9uGWwSDK7kMU5xNjuA3trBdB2BtCWR12v1xgW+bHTQd/p1QtqgyQ207u7WxaF/kJjFm5O/lH8eJNc8wju3KZSPfgVxtbDnPYm839UWi7Qx9YbuGZsjPZF3S5bvtWMlcB3L1hQUWctv4bIh5bc7SGdeRQgq8mIwxodn24LURF6IbVXT8KoIrF+4AfMB24LWniynB3CI9M1mk35+gg1tcuGeY8sHavOzjrsCgCl1n+IBZDGnhckVZxM8MiEVmEh920/Nj/vf6zUj8HX2MPtzAdbuxcjR9D0gIAgdNv4P59QVcSVHseC1MxeTlgifqfy5glAnHBAAw++zyCcWeY58dAhii6w6lZ1UlztyO6RaGCqqnPqrBGK471NdBPLnfgQ/mkzcU5WiM0A+4EOB1jdqDP3Pqw3Ok8S/Gh/TcYmNGCNm51H5AreehX5/ibFK07bgfoMH1KNln7Gdeexibs0wGSAtJvY/RaQejHvQbR3Xj5rWAIgt4om8181s6gmUbpuRb1Hmt2zwBwPT8GzNAfGgBcuuGx8H6EyB9G+frs+z5I9XRCRTDw4iPE1172C+wYhFPKj58zgdjuJ+kOp2O0AebO0XbLhOnCf80mheJOZtAKEB6xWfrtxoglaT22xaAe/wsovy+P8HhjwtcPJyg8/4Eo/17jN0x9vwmdj/WgAmX2t4JMHDhim/wtTExfyQW6Ys86DZeLc9H0x9h+/NxbtlT642w96eLcPmp9zE6TY5je+zku20bW+szmjbS9kUb+OK64YhqeT6aal9YrqG6dYX1hW7t5t9Lke+h4vuk6CBeH7WJopNsJDdt/uW2IjtYX+xeX8Dt6vSFpFErbiyRvmEht/VtoiuvQpbOuKbkd6H5z13uR6QseIOudrDHnht8xewJXKAXJysQoYJbaZBNcTYJgI0qjl46G0i4M7bfSJiDV3MwOcNxTFDyNoGDPU2bBFdyYMkQNwGAze0w8E0IiKhMQ3y9ngMbuziQMgKxHe8XqZ+G6F4FgHO4WBS4TfBqTGHk5XP2ksfiTzNcSJN++sct5qjgnQPIpx+ykJ6ef2HjuB4FAwp//C9lBeSIsaJYE6bn3QUDcNKDm3Y2K8DTbUz4T8+P43M79CWUhOXkDF+u56jsH0ltHLVffKEeolto4WbMry+k903x/ccc2HiHncJvTIOPf2XsiOPYb4YTh8UDyGznTw3bm0hsZofdBayvgrZnUFKkEzCpH9m8qKDaEC1VpO1siM+L6fk3BKgwBTlBDf1Lg/IejtlOmLEmUl6L+cBXNu6jem1UcC+9p7IZjdBE//C1sfL+QB9gvHBf2CLG3UVszg+7YwQo8j6N/Jic4ZtmXOTCQr5btXEoy+z0GQCpfQEM0VU2x8OrGebK+LRbQ/XrCusLB4faxBXpske8L66ET3HWlf4drj3yHOCyR6dHxdZHVV8Yoivc0z7PMAdrazd0Wcs/z5LyI12fAV5f8KogtwL/8T+9z+FHpD43xc8HxJTB3IgJ96e52xN+0cEj5hCWlpeDTdrbHEGXXJguw8+bt0mSOR6VRDrDrgv3U7Q73zbtjGWrlclvP3iUFORiMCGU3o7q+Jj+ugfAj8VlHn7G23ZyhmOXC3NhKXy4U/5IVRrL98fPP1bsEIu9af7ePczZyVlKphKTL2GijcXpUcpcLYLqQzk9Py60ENgy/FNdHNJPgLLa2Arr+cNlqtMsN23ix+jkKamkmOqflO95286KxLy4w+NTXEFmbGda5qbnx0yxcJrwfT888Sh8QhyrV1KWmuFtp6OkvrCivQcHOj/lpCFnEe4e9KuPLdbyPf5Uoo1z+0Wn9oWByU/cx79qt4Ya1xXTeM+SPXbrVOuDA+0J1OAGAZJ6VNnyPYudzaTjDMMw3yx0xnUltwvNf9z8D8DTI1SV5rkoZJGe/MT9aRVbSyvVkmjv6f28C6D1uy+E8BFlO/EpP/472o8vIuwYmh2v+adlfFfALQxXz5ceyxx0k9dP1hYu4NXNRQnvPXif7gc4PT/GtO3Bb0h+0ooFnQlQ1e9VIC3MzjtUcikxK8rgK2b1DqrCFUScAGl9TLPb2IY882fYdXHXG6Gz34Tvsx5ZLNaoguo+Exb6sb+DdxsANqLvxXiS/j9X25WMU2WuiSnrlewK4Z5PubuDD79R0EfbFpMP75P6gxL7wpqUOcuNFvlGVnZs0FKwaGN24mirz2T1BSPhO86JJKPdGor6NrbA3Tyl+LaQxIYvQ/bw91kFkaa0Cds4vJwryvBqhsPTKg57NQyFC009xS20DC+GFSW3Av8/H/438HuRSVwGBdMp5hm4K0PkfrDoMsKUd8UdYwH/bKZcKL5sipI3/XWPDrYWC6TSfXul0mMV9JPNZIqfDx1UubWrtFErjkaz/AAHXRazAjF24v6qdw9zwLHwuQ8eMYfDrMVrfXQ5xfcfJ6jusyP6u4+75hMg2zbO+mLO+RPFxHB/0P10f+p05lGgcMOHB9UizSyAzoONkpuj7comiIJdO5d9QBOIr7pCyJshNe6jNIRiqchMvd9vmX1RArmNd+nxUUvDso2ZLLPVZ7L6whS4zePU5Ocs1tDQ8Gi7Gc+SPeJ9vy22qiRPpJ8Z5x3blMkbG2PA6+tOwZ3bheaP/3WPNF+jdBZ0NSiYTpEdk2VZAvlR5BJh7gmKr277KBYlH2LtfmA+TmOwNi/P/yvykXSlyxgSi0dOVxm7I9Dix++FXFIm33GrjdlQy6Hvg1ZDFyWfhI3POGysxP0hTdi1XbE2GHZdjJWjc9vviaPjQjEv/Ch/6fAyZrnXMT9rB3ttbuUyyDDbNs5sw8KuZlOcfbpgvr4amaCVQQaGXfYep6HeXJjPPcO27QDwmxJzXjaVJisnZzjmvrsdxcVIKFEJl6xfzOFhWS6XYj3KcwFdWX2RyeDGEE+gX7szxzGfx8u+UEidd7ZtzMqfT58x9wVfFzKtvZZraObarrw1U/bw95niLDjDPwP92rMS6ayluCq57UxB+StR5uWRP4j13/6HfvDyqO00Wh4LJioWvCQ6LqciWu/jJBEMpg7kZLqpZcACJKXgk3ofo8YW5ppjThFskn3sI3xgTYGhrK6xAJ+2B1+bgskGS6HCA5WSQs4AV1hSg6SEhSHvRQxtj2UZyL2I8OAYpxkb27XeiVIO7hMv9UGtN0Jzc56IM1AVc9NxqwjMq57G81GzLDTKwzZtJ/wAU9ughv6lmv+abwBld57BVxYgd5qVK1sElzWVm4J5FhpOYhE1pldbBnw8x4JvdTAfYKfBfKq1MsyqjTlZfWY9f1rwVGXXGLsRtbU+AC7xNM4+jbXjcHg1w1yjFOuxaDtRmw+83y03r0AN/XaGrBx0caEZh0wex4PRw3VmiYs+6wNZSeb56FOHfFl9kQWbs5X9k9i4M67dWeOYx1rJm/iW52tlXmE08t26jUVijVz6jKkv+Fosj916H6OE+5CtYh6tP5k3rVvJniihR3ys8Cw04p9CvrfledGC11iFQNA8G9aCOuMa8Zfff//9H7YP/+1vfwMA/P3vf8/M66pVTIrmBwUy070JdL7e+hzBcb+8KGcvUvLdxt6qpNAzKMRqnWPKCXsHRG5jJT+69dFZZr5bpR5PM1wMgBOlPaO0dRnH9jlysOYaBxm56q1S4GnLpssNK6Veyzp6tsihH5Yv7NoxWNc2AWX8xZ57moV3JajPLZTH2CrXuo7kmDd9UxtXoWtP6zsI5Hsb2F0Euz/UPPBOZs5v06bIXJdknbXf0KbEVL9rn84zf7twDKnm5KfS2ijxTvl9Uq591d2ukphHevlYpO0SzxlkhN2Y4/PmQeM+4SjPa+VFkZtY49+My9KkrFH7ILhycfNBkW/L6gub2qSNEZWscaz8fn59gS84yTdXBNby3bKNOZl56q37QpXZAcbuDfbU9TxPHnOLOueSPVZ56i3WHoNOZlynM3Q4e7lt1sti4z3je//94r8BAP5L579qv7kOFFbgs8i9mNm87/1t8Q3AOtH2lI3ECmHwLbTKxboQLa0ybCpf1kbvbRFdMrP4JWpvmNQNBLVxKpabryzy5rEnXhmvQb6Xvoa+JdljyJePZKxfls74GhT4/C40L8IS0ymuHOLYZzWvQRYBJEl/05Q0aCVQSmq+twp3PXqtfoDPRTJ3swS1cSqpbUcQb4my19C3JHt4QhKdLhhPTfo2dMZCN7E+P9HNb6+fKc4+rfCQ45lFErcrcj/EZW08oiwbRG6krDJEMWq9EbfuGCy/1MZGMtuOIN4SZa+hb0n28Ew6zvsD1DCNuRGe7FekVJJvQ2dcEwWeWBkmZzgGvwpbyTu86PE4QawakW+s3s+WMENttyKkxWjJ2MQDLYE032eZ4MpFd93vlABoDV2IIbouiy0L7ynhiLsc3hKFfOAJgiAIgiAIYh351/MzAMC/9PovXJLirIkPPEEQBEEQBEEQQE4LPEEQBEEQBEEQLwtZ4AmCIAiCIAhijSAFniAIgiAIgiDWCFLgCYIgCIIgCGKNIAWeIAiCIAiCINYIUuAJgiAIgiAIYo0gBZ4gCIIgCIIg1ghS4AmCIAiCIAhijSAFniAIgiAIgiDWCFLgCYIgCIIgCGKNIAWeIAiCIAiCINYIUuAJgiAIgiAIYo34/+2mrktHzM1BAAAAAElFTkSuQmCC;" vertex="1" parent="1">
          <mxGeometry x="-900" y="-760" width="640" height="80" as="geometry" />
        </mxCell>
        <mxCell id="cpKgAFX4QUd4WCAVDUvz-14" value="" style="endArrow=none;dashed=1;html=1;dashPattern=1 3;strokeWidth=2;rounded=0;" edge="1" parent="1">
          <mxGeometry width="50" height="50" relative="1" as="geometry">
            <mxPoint x="-120" y="-710" as="sourcePoint" />
            <mxPoint x="-70" y="-760" as="targetPoint" />
          </mxGeometry>
        </mxCell>
        <mxCell id="cpKgAFX4QUd4WCAVDUvz-17" value="" style="shape=waypoint;sketch=0;size=6;pointerEvents=1;points=[];fillColor=default;resizable=0;rotatable=0;perimeter=centerPerimeter;snapToPoint=1;verticalAlign=top;labelBackgroundColor=default;" vertex="1" parent="1">
          <mxGeometry x="-190" y="-730" width="20" height="20" as="geometry" />
        </mxCell>
        <mxCell id="cpKgAFX4QUd4WCAVDUvz-21" value="testkey.pem" style="ellipse;whiteSpace=wrap;html=1;" vertex="1" parent="1">
          <mxGeometry x="820" y="-350" width="120" height="80" as="geometry" />
        </mxCell>
        <mxCell id="cpKgAFX4QUd4WCAVDUvz-22" value="" style="endArrow=classic;html=1;rounded=0;" edge="1" parent="1" source="lJtS1HTkO1mfaPGoBsWW-2" target="cpKgAFX4QUd4WCAVDUvz-21">
          <mxGeometry width="50" height="50" relative="1" as="geometry">
            <mxPoint x="610" y="-510" as="sourcePoint" />
            <mxPoint x="660" y="-560" as="targetPoint" />
          </mxGeometry>
        </mxCell>
        <mxCell id="cpKgAFX4QUd4WCAVDUvz-23" value="给extra_info签名" style="shape=note;whiteSpace=wrap;html=1;backgroundOutline=1;darkOpacity=0.05;fillColor=#6d8764;fontColor=#ffffff;strokeColor=#3A5431;" vertex="1" parent="1">
          <mxGeometry x="1100" y="-210" width="150" height="60" as="geometry" />
        </mxCell>
        <mxCell id="cpKgAFX4QUd4WCAVDUvz-25" value="" style="endArrow=none;dashed=1;html=1;dashPattern=1 3;strokeWidth=2;rounded=0;exitX=0.02;exitY=0.633;exitDx=0;exitDy=0;exitPerimeter=0;" edge="1" parent="1" source="cpKgAFX4QUd4WCAVDUvz-23" target="cpKgAFX4QUd4WCAVDUvz-21">
          <mxGeometry width="50" height="50" relative="1" as="geometry">
            <mxPoint x="1060" y="-190" as="sourcePoint" />
            <mxPoint x="960" y="-270" as="targetPoint" />
          </mxGeometry>
        </mxCell>
      </root>
    </mxGraphModel>
  </diagram>
</mxfile>
